<svg width="90" height="30" viewBox="0 0 90 30" fill="none" xmlns="http://www.w3.org/2000/svg">
<path d="M40.6247 0.643027H33.1867V29.2601H40.6247V0.643027Z" fill="white"/>
<path d="M23.734 1.32011C19.6281 -0.773318 14.2257 -0.338051 10.9005 2.34955C9.65967 3.34445 8.94864 4.44989 8.62797 5.02334C7.95179 6.25314 7.63112 7.51749 7.54747 8.72656L1.47577 6.23241C0.56954 8.38802 -1.25685 14.0741 1.32937 20.1955C1.83825 21.3908 3.37884 25.0387 7.38017 27.5536C9.71544 29.0252 12.7687 29.9994 15.9614 29.9994C18.7637 29.9994 21.6776 29.2463 24.2987 27.4085C28.1676 24.714 30.4401 20.1195 30.5447 14.8065C30.5865 12.4781 30.231 4.62261 23.734 1.32011ZM23.9641 14.6821C23.9292 16.5683 23.4343 20.0435 20.5135 22.0817C17.4044 24.258 13.3543 23.5878 10.9005 22.054C8.64888 20.6308 7.74266 18.489 7.40108 17.6806C5.77685 13.8323 6.95494 10.1567 7.54747 8.74038C7.29652 12.3814 9.13685 15.5941 9.61785 16.361L15.2086 12.9341C14.6997 12.1189 13.5634 9.67309 14.3999 8.15311C14.4348 8.08402 14.6439 7.73166 15.0482 7.40694C16.3797 6.32914 18.9311 6.20478 20.7365 7.11676C23.9153 8.74038 23.985 13.701 23.9641 14.6821Z" fill="white"/>
<path d="M84.1653 23.0006C83.2939 23.3667 82.0043 23.8987 80.2546 23.954C79.2438 23.9955 77.8705 24.0438 76.4624 23.2286C75.6189 22.7449 75.0822 22.13 74.7685 21.7155C75.8141 21.8329 76.8528 21.8882 77.8775 21.8882C81.0423 21.8882 83.6564 21.4184 85.678 20.4995C85.7129 20.4788 85.7547 20.465 85.7895 20.4511C85.8732 20.4097 85.9568 20.3682 86.0335 20.3268C86.2078 20.237 86.3821 20.1541 86.5424 20.0573C88.8359 18.7446 90 16.8792 90 14.5232C90 12.4712 89.1286 10.82 87.4208 9.604C85.8174 8.46402 83.6843 7.89057 81.0772 7.89057C79.9479 7.89057 77.2989 7.91821 74.4687 9.54182C73.674 10.0047 70.9553 11.6214 69.4496 15.0138C68.4737 17.2246 68.4667 19.1453 68.4806 19.6981C68.5016 20.7275 68.7246 24.0024 71.2342 26.6831C74.2665 29.9372 78.477 29.9786 79.8991 29.9994C84.9182 30.0477 88.3758 27.2703 89.3517 26.4274C88.4734 24.8107 87.595 23.1871 86.7167 21.5704C86.1381 21.9849 85.2807 22.5307 84.1653 23.0006ZM77.6823 14.4196C78.6583 13.8738 79.7806 13.5905 81.0423 13.5905C82.2344 13.5905 82.8129 13.777 83.0918 13.9359C83.2939 14.0603 83.4264 14.2054 83.4264 14.5578C83.4264 14.7028 83.4264 15.1381 82.325 15.5734C81.3002 15.981 79.8015 16.1883 77.8775 16.1883C77.2083 16.1883 76.5182 16.1606 75.8071 16.1054C76.3021 15.4076 76.9225 14.8548 77.6823 14.4196Z" fill="white"/>
<path d="M66.6891 18.2679C65.8177 15.8152 64.2562 13.7978 62.2068 12.6301C62.0046 12.5196 61.7955 12.4298 61.5864 12.3331C61.8164 11.3174 62.0743 10.2465 62.3601 9.09965L62.5762 8.22911H56.1699L56.0305 8.76801C55.7796 9.756 55.5495 10.6887 55.3474 11.5731C54.7827 11.6698 54.2181 11.7942 53.6534 11.9669C52.8099 12.2294 52.0013 12.5887 51.2275 13.0101V0.643027H43.7895V29.2601H51.2275V19.9053C52.071 18.8828 53.0957 18.0744 54.232 17.5286C54.0438 19.0279 53.9462 20.4166 53.9462 21.6671C53.9462 24.41 54.462 26.3929 55.5286 27.7401C56.623 29.1219 58.3449 29.8197 60.6453 29.8197C62.7296 29.8197 64.4305 29.191 65.7062 27.9405C66.9819 26.69 67.6302 24.9282 67.6302 22.6897C67.6302 21.1835 67.3095 19.6981 66.6891 18.2679ZM61.1054 24.5689C60.9799 24.6173 60.8544 24.5896 60.7917 24.5689C60.7847 24.5689 60.7777 24.562 60.7708 24.562C60.7429 24.562 60.715 24.562 60.6732 24.5136C60.0249 24.1129 60.0179 22.282 60.0179 21.6602C60.0179 20.99 60.0806 19.9537 60.471 18.7032C60.478 18.6893 60.478 18.6755 60.478 18.6617C60.478 18.6686 60.485 18.6686 60.485 18.6755C60.485 18.6479 60.4989 18.6203 60.5059 18.5926C61.2169 19.7948 61.4539 20.8657 61.5445 21.522C61.6491 22.3511 61.7746 24.3064 61.1054 24.5689Z" fill="white"/>
<path d="M59.516 6.70222C60.5825 6.70222 61.4539 6.39823 62.1231 5.79023C62.7924 5.18224 63.1269 4.36007 63.1269 3.33063C63.1269 2.30119 62.7924 1.52047 62.1231 0.912478C61.4539 0.304486 60.5895 0.000489327 59.516 0.000489327C58.4494 0.000489327 57.5781 0.304486 56.9089 0.912478C56.2396 1.52047 55.905 2.32882 55.905 3.33063C55.905 4.33243 56.2396 5.18224 56.9089 5.79023C57.5781 6.39823 58.4494 6.70222 59.516 6.70222Z" fill="white"/>
</svg>
