<svg width="24" height="23" viewBox="0 0 24 23" fill="none" xmlns="http://www.w3.org/2000/svg">
<path d="M12 19.0333L6.46662 22.3666C6.22217 22.5222 5.96662 22.5888 5.69995 22.5666C5.43328 22.5444 5.19995 22.4555 4.99995 22.2999C4.79995 22.1444 4.64439 21.9502 4.53328 21.7173C4.42217 21.4844 4.39995 21.223 4.46662 20.9333L5.93328 14.6333L1.03328 10.3999C0.811061 10.1999 0.672395 9.97193 0.617284 9.71593C0.562173 9.45993 0.578617 9.21016 0.666617 8.9666C0.754617 8.72305 0.88795 8.52305 1.06662 8.3666C1.24528 8.21016 1.48973 8.11016 1.79995 8.0666L8.26662 7.49993L10.7666 1.5666C10.8777 1.29994 11.0502 1.09993 11.284 0.966601C11.5177 0.833268 11.7564 0.766602 12 0.766602C12.2435 0.766602 12.4822 0.833268 12.716 0.966601C12.9497 1.09993 13.1222 1.29994 13.2333 1.5666L15.7333 7.49993L22.1999 8.0666C22.5111 8.11105 22.7555 8.21105 22.9333 8.3666C23.1111 8.52216 23.2444 8.72216 23.3333 8.9666C23.4222 9.21105 23.4391 9.46127 23.3839 9.71727C23.3288 9.97327 23.1897 10.2008 22.9666 10.3999L18.0666 14.6333L19.5333 20.9333C19.6 21.2222 19.5777 21.4835 19.4666 21.7173C19.3555 21.951 19.2 22.1453 19 22.2999C18.8 22.4546 18.5666 22.5435 18.3 22.5666C18.0333 22.5897 17.7777 22.523 17.5333 22.3666L12 19.0333Z" fill="#FDF022"/>
</svg>
